<?xml version="1.0" standalone="no"?><svg xmlns="http://www.w3.org/2000/svg" viewBox="0 0 1440 320"><path fill="#00cba9" fill-opacity="1" d="M0,32L0,192L38.9,192L38.9,64L77.8,64L77.8,96L116.8,96L116.8,32L155.7,32L155.7,224L194.6,224L194.6,96L233.5,96L233.5,64L272.4,64L272.4,288L311.4,288L311.4,0L350.3,0L350.3,128L389.2,128L389.2,128L428.1,128L428.1,96L467,96L467,96L505.9,96L505.9,288L544.9,288L544.9,128L583.8,128L583.8,256L622.7,256L622.7,128L661.6,128L661.6,224L700.5,224L700.5,96L739.5,96L739.5,0L778.4,0L778.4,32L817.3,32L817.3,128L856.2,128L856.2,288L895.1,288L895.1,96L934.1,96L934.1,320L973,320L973,32L1011.9,32L1011.9,256L1050.8,256L1050.8,64L1089.7,64L1089.7,0L1128.6,0L1128.6,256L1167.6,256L1167.6,288L1206.5,288L1206.5,64L1245.4,64L1245.4,128L1284.3,128L1284.3,224L1323.2,224L1323.2,256L1362.2,256L1362.2,64L1401.1,64L1401.1,96L1440,96L1440,0L1401.1,0L1401.1,0L1362.2,0L1362.2,0L1323.2,0L1323.2,0L1284.3,0L1284.3,0L1245.4,0L1245.4,0L1206.5,0L1206.5,0L1167.6,0L1167.6,0L1128.6,0L1128.6,0L1089.7,0L1089.7,0L1050.8,0L1050.8,0L1011.9,0L1011.9,0L973,0L973,0L934.1,0L934.1,0L895.1,0L895.1,0L856.2,0L856.2,0L817.3,0L817.3,0L778.4,0L778.4,0L739.5,0L739.5,0L700.5,0L700.5,0L661.6,0L661.6,0L622.7,0L622.7,0L583.8,0L583.8,0L544.9,0L544.9,0L505.9,0L505.9,0L467,0L467,0L428.1,0L428.1,0L389.2,0L389.2,0L350.3,0L350.3,0L311.4,0L311.4,0L272.4,0L272.4,0L233.5,0L233.5,0L194.6,0L194.6,0L155.7,0L155.7,0L116.8,0L116.8,0L77.8,0L77.8,0L38.9,0L38.9,0L0,0L0,0Z"></path></svg>