<?xml version="1.0" standalone="no"?><svg xmlns="http://www.w3.org/2000/svg" viewBox="0 0 1440 320"><path fill="#e7008a" fill-opacity="1" d="M0,32L0,192L38.9,192L38.9,64L77.8,64L77.8,96L116.8,96L116.8,32L155.7,32L155.7,224L194.6,224L194.6,96L233.5,96L233.5,64L272.4,64L272.4,288L311.4,288L311.4,0L350.3,0L350.3,128L389.2,128L389.2,128L428.1,128L428.1,96L467,96L467,96L505.9,96L505.9,288L544.9,288L544.9,128L583.8,128L583.8,256L622.7,256L622.7,128L661.6,128L661.6,224L700.5,224L700.5,96L739.5,96L739.5,0L778.4,0L778.4,32L817.3,32L817.3,128L856.2,128L856.2,288L895.1,288L895.1,96L934.1,96L934.1,320L973,320L973,32L1011.9,32L1011.9,256L1050.8,256L1050.8,64L1089.7,64L1089.7,0L1128.6,0L1128.6,256L1167.6,256L1167.6,288L1206.5,288L1206.5,64L1245.4,64L1245.4,128L1284.3,128L1284.3,224L1323.2,224L1323.2,256L1362.2,256L1362.2,64L1401.1,64L1401.1,96L1440,96L1440,320L1401.1,320L1401.1,320L1362.2,320L1362.2,320L1323.2,320L1323.2,320L1284.3,320L1284.3,320L1245.4,320L1245.4,320L1206.5,320L1206.5,320L1167.6,320L1167.6,320L1128.6,320L1128.6,320L1089.7,320L1089.7,320L1050.8,320L1050.8,320L1011.9,320L1011.9,320L973,320L973,320L934.1,320L934.1,320L895.1,320L895.1,320L856.2,320L856.2,320L817.3,320L817.3,320L778.4,320L778.4,320L739.5,320L739.5,320L700.5,320L700.5,320L661.6,320L661.6,320L622.7,320L622.7,320L583.8,320L583.8,320L544.9,320L544.9,320L505.9,320L505.9,320L467,320L467,320L428.1,320L428.1,320L389.2,320L389.2,320L350.3,320L350.3,320L311.4,320L311.4,320L272.4,320L272.4,320L233.5,320L233.5,320L194.6,320L194.6,320L155.7,320L155.7,320L116.8,320L116.8,320L77.8,320L77.8,320L38.9,320L38.9,320L0,320L0,320Z"></path></svg>